<?xml version="1.0" encoding="utf-8"?>
<!-- Generator: Adobe Illustrator 18.1.0, SVG Export Plug-In . SVG Version: 6.00 Build 0)  -->
<!DOCTYPE svg PUBLIC "-//W3C//DTD SVG 1.1//EN" "http://www.w3.org/Graphics/SVG/1.1/DTD/svg11.dtd">
<svg version="1.1" id="Layer_1" xmlns="http://www.w3.org/2000/svg" xmlns:xlink="http://www.w3.org/1999/xlink" x="0px" y="0px"
	 viewBox="0 0 288 288" enable-background="new 0 0 288 288" xml:space="preserve">
<g>
	<path fill="#FFFFFF" d="M270.8,241.5H17.2c-4.5,0-8.2-3.7-8.2-8.2V63c0-4.5,3.7-8.2,8.2-8.2h253.6c4.5,0,8.2,3.7,8.2,8.2v170.3
		C279,237.8,275.3,241.5,270.8,241.5z"/>
	<g>
		<path d="M270.8,238.5c-21.6,0-43.2,0-64.9,0c-40.4,0-80.8,0-121.2,0c-15.8,0-31.6,0-47.3,0c-6.6,0-13.6,0.7-20.1,0
			c-5.8-0.6-5.3-5.4-5.3-9.6c0-5.5,0-11,0-16.5c0-18.4,0-36.9,0-55.3c0-19.9,0-39.8,0-59.7c0-11.1-0.7-22.5,0-33.6
			c0.5-8.1,10.3-6.1,16.1-6.1c13.6,0,27.2,0,40.8,0c40.1,0,80.1,0,120.2,0c26.6,0,53.4-0.8,80,0c3.7,0.1,6.6,1.5,7,5.8
			c0.3,3.6,0,7.2,0,10.8c0,16.5,0,33,0,49.6c0,34.7,0,69.4,0,104C276,232.2,276.9,238,270.8,238.5c-3.8,0.3-3.9,6.3,0,6
			c14.2-1.2,11.2-17.8,11.2-27.9c0-18.5,0-37.1,0-55.6c0-32.4,0.8-64.9,0-97.3c-0.2-6.7-4.5-11.8-11.4-12.1c-2.3-0.1-4.7,0-7.1,0
			c-13,0-26.1,0-39.1,0c-41.2,0-82.4,0-123.6,0c-27.4,0-54.9-0.5-82.3,0C11.8,51.8,6.3,55.8,6,63c-0.1,2.6,0,5.3,0,8
			c0,16.2,0,32.5,0,48.7c0,36.2,0,72.3,0,108.5c0,4-0.4,8,2,11.5c2.8,4.1,7.2,4.9,11.8,4.9c10.6,0,21.2,0,31.8,0
			c40.1,0,80.1,0,120.2,0c31.3,0,62.7,0,94,0c1.7,0,3.4,0,5.1,0C274.7,244.5,274.7,238.5,270.8,238.5z"/>
	</g>
</g>
<g>
	<rect x="9" y="125" fill="#E85512" width="270" height="23.1"/>
	<g>
		<path fill="#E85512" d="M279,145.1c-30.4,0-60.9,0-91.3,0c-48.5,0-97,0-145.5,0c-11.1,0-22.2,0-33.2,0c1,1,2,2,3,3
			c0-7.7,0-15.4,0-23.1c-1,1-2,2-3,3c30.4,0,60.9,0,91.3,0c48.5,0,97,0,145.5,0c11.1,0,22.2,0,33.2,0c-1-1-2-2-3-3
			c0,7.7,0,15.4,0,23.1c0,3.9,6,3.9,6,0c0-7.7,0-15.4,0-23.1c0-1.6-1.4-3-3-3c-30.4,0-60.9,0-91.3,0c-48.5,0-97,0-145.5,0
			c-11.1,0-22.2,0-33.2,0c-1.6,0-3,1.4-3,3c0,7.7,0,15.4,0,23.1c0,1.6,1.4,3,3,3c30.4,0,60.9,0,91.3,0c48.5,0,97,0,145.5,0
			c11.1,0,22.2,0,33.2,0C282.9,151.1,282.9,145.1,279,145.1z"/>
	</g>
</g>
<g>
	<path fill="#FFFFFF" d="M87.4,164.8H25.8c-2.5,0-4.6-2.1-4.6-4.6v-42c0-2.5,2.1-4.6,4.6-4.6h61.6c2.5,0,4.6,2.1,4.6,4.6v42
		C92,162.7,89.9,164.8,87.4,164.8z"/>
	<g>
		<path d="M87.4,161.8c-15.1,0-30.1,0-45.2,0c-3.9,0-7.7,0-11.6,0c-1.3,0-3.6,0.5-4.8,0c-2.5-0.9-1.6-4.9-1.6-7.1c0-4.5,0-9,0-13.5
			c0-4.7,0-9.4,0-14.1c0-2.5-0.6-6.1,0-8.5c1-3.8,11.5-2,14.6-2c9.7,0,19.3,0,29,0c4.2,0,8.4,0,12.6,0c2,0,4.7-0.5,6.7,0
			c2.7,0.7,2,3.8,2,6.1c0,4.8,0,9.7,0,14.5c0,5.3,0,10.7,0,16c0,2.8,1.2,8.2-2.4,8.7c-3.8,0.5-2.2,6.3,1.6,5.8
			c9.4-1.3,6.8-14.7,6.8-21.3c0-9.2,0.4-18.5,0-27.7c-0.4-8.7-7.9-8.2-14.3-8.2c-10.5,0-21,0-31.5,0c-7.7,0-15.4-0.4-23.1,0
			c-9.3,0.5-8,9.9-8,16.5c0,10.2,0,20.4,0,30.6c0,3.5,0.3,7.1,3.8,9.1c2.3,1.3,5.1,1,7.6,1c19.3,0,38.5,0,57.8,0
			C91.2,167.8,91.2,161.8,87.4,161.8z"/>
	</g>
</g>
<g>
	<rect x="9" y="179" fill="#E85512" width="270" height="29"/>
	<g>
		<path fill="#E85512" d="M279,205c-30.4,0-60.9,0-91.3,0c-48.5,0-97,0-145.5,0c-11.1,0-22.2,0-33.2,0c1,1,2,2,3,3
			c0-9.7,0-19.3,0-29c-1,1-2,2-3,3c30.4,0,60.9,0,91.3,0c48.5,0,97,0,145.5,0c11.1,0,22.2,0,33.2,0c-1-1-2-2-3-3c0,9.7,0,19.3,0,29
			c0,3.9,6,3.9,6,0c0-9.7,0-19.3,0-29c0-1.6-1.4-3-3-3c-30.4,0-60.9,0-91.3,0c-48.5,0-97,0-145.5,0c-11.1,0-22.2,0-33.2,0
			c-1.6,0-3,1.4-3,3c0,9.7,0,19.3,0,29c0,1.6,1.4,3,3,3c30.4,0,60.9,0,91.3,0c48.5,0,97,0,145.5,0c11.1,0,22.2,0,33.2,0
			C282.9,211,282.9,205,279,205z"/>
	</g>
</g>
<g>
	<path fill="#FFFFFF" d="M174.8,164.8h-61.6c-2.5,0-4.6-2.1-4.6-4.6v-42c0-2.5,2.1-4.6,4.6-4.6h61.6c2.5,0,4.6,2.1,4.6,4.6v42
		C179.4,162.7,177.3,164.8,174.8,164.8z"/>
	<g>
		<path d="M174.8,161.8c-15.1,0-30.1,0-45.2,0c-3.9,0-7.7,0-11.6,0c-1.3,0-3.6,0.5-4.8,0c-2.5-0.9-1.6-4.9-1.6-7.1c0-4.5,0-9,0-13.5
			c0-4.7,0-9.4,0-14.1c0-2.5-0.6-6.1,0-8.5c1-3.8,11.5-2,14.6-2c9.7,0,19.3,0,29,0c4.2,0,8.4,0,12.6,0c2,0,4.7-0.5,6.7,0
			c2.7,0.7,2,3.8,2,6.1c0,4.8,0,9.7,0,14.5c0,5.3,0,10.7,0,16c0,2.8,1.2,8.2-2.4,8.7c-3.8,0.5-2.2,6.3,1.6,5.8
			c9.4-1.3,6.8-14.7,6.8-21.3c0-9.2,0.4-18.5,0-27.7c-0.4-8.7-7.9-8.2-14.3-8.2c-10.5,0-21,0-31.5,0c-7.7,0-15.4-0.4-23.1,0
			c-9.3,0.5-8,9.9-8,16.5c0,10.2,0,20.4,0,30.6c0,3.5,0.3,7.1,3.8,9.1c2.3,1.3,5.1,1,7.6,1c19.3,0,38.5,0,57.8,0
			C178.6,167.8,178.6,161.8,174.8,161.8z"/>
	</g>
</g>
<g>
	<path fill="#FFFFFF" d="M262.9,164.8h-61.6c-2.5,0-4.6-2.1-4.6-4.6v-42c0-2.5,2.1-4.6,4.6-4.6h61.6c2.5,0,4.6,2.1,4.6,4.6v42
		C267.5,162.7,265.4,164.8,262.9,164.8z"/>
	<g>
		<path d="M262.9,161.8c-15.1,0-30.1,0-45.2,0c-3.9,0-7.7,0-11.6,0c-1.3,0-3.6,0.5-4.8,0c-2.5-0.9-1.6-4.9-1.6-7.1c0-4.5,0-9,0-13.5
			c0-4.7,0-9.4,0-14.1c0-2.5-0.6-6.1,0-8.5c1-3.8,11.5-2,14.6-2c9.7,0,19.3,0,29,0c4.2,0,8.4,0,12.6,0c2,0,4.7-0.5,6.7,0
			c2.7,0.7,2,3.8,2,6.1c0,4.8,0,9.7,0,14.5c0,5.3,0,10.7,0,16c0,2.8,1.2,8.2-2.4,8.7c-3.8,0.5-2.2,6.3,1.6,5.8
			c9.4-1.3,6.8-14.7,6.8-21.3c0-9.2,0.4-18.5,0-27.7c-0.4-8.7-7.9-8.2-14.3-8.2c-10.5,0-21,0-31.5,0c-7.7,0-15.4-0.4-23.1,0
			c-9.3,0.5-8,9.9-8,16.5c0,10.2,0,20.4,0,30.6c0,3.5,0.3,7.1,3.8,9.1c2.3,1.3,5.1,1,7.6,1c19.3,0,38.5,0,57.8,0
			C266.7,167.8,266.7,161.8,262.9,161.8z"/>
	</g>
</g>
</svg>
